<?xml version="1.0" standalone="no"?>
<!DOCTYPE svg PUBLIC "-//W3C//DTD SVG 20010904//EN"
 "http://www.w3.org/TR/2001/REC-SVG-20010904/DTD/svg10.dtd">
<svg version="1.0" xmlns="http://www.w3.org/2000/svg"
 width="180.000000pt" height="180.000000pt" viewBox="0 0 180.000000 180.000000"
 preserveAspectRatio="xMidYMid meet">

<g transform="translate(0.000000,180.000000) scale(0.100000,-0.100000)"
fill="#000000" stroke="none">
<path d="M1666 1691 c-4 -7 -5 -15 -2 -18 9 -9 19 4 14 18 -4 11 -6 11 -12 0z"/>
<path d="M0 1651 c0 -23 4 -31 12 -27 7 3 21 9 31 12 22 8 22 24 -1 24 -10 0
-23 5 -30 12 -9 9 -12 5 -12 -21z"/>
<path d="M1691 1654 c0 -11 3 -14 6 -6 3 7 2 16 -1 19 -3 4 -6 -2 -5 -13z"/>
<path d="M1295 1640 c3 -5 11 -10 16 -10 6 0 7 5 4 10 -3 6 -11 10 -16 10 -6
0 -7 -4 -4 -10z"/>
<path d="M1340 1606 c0 -9 7 -16 16 -16 17 0 14 22 -4 28 -7 2 -12 -3 -12 -12z"/>
<path d="M56 1294 c-3 -9 -2 -23 4 -32 7 -14 9 -10 10 16 0 35 -5 41 -14 16z"/>
<path d="M1251 1234 c0 -11 3 -14 6 -6 3 7 2 16 -1 19 -3 4 -6 -2 -5 -13z"/>
<path d="M1498 1162 c-16 -9 -28 -20 -28 -24 0 -15 43 -8 56 10 27 35 15 41
-28 14z"/>
<path d="M1401 1091 c-18 -18 -19 -24 -9 -41 15 -23 34 -21 30 4 -2 11 5 20
18 23 11 3 19 11 17 17 -6 20 -35 18 -56 -3z"/>
<path d="M1223 1068 c15 -36 34 -47 43 -23 7 18 -22 55 -43 55 -11 0 -11 -5 0
-32z"/>
<path d="M1356 1061 c-4 -7 -5 -15 -2 -18 9 -9 19 4 14 18 -4 11 -6 11 -12 0z"/>
<path d="M1220 975 c0 -8 5 -15 10 -15 6 0 10 7 10 15 0 8 -4 15 -10 15 -5 0
-10 -7 -10 -15z"/>
<path d="M470 970 c0 -5 7 -10 16 -10 8 0 12 5 9 10 -3 6 -10 10 -16 10 -5 0
-9 -4 -9 -10z"/>
<path d="M1300 950 c0 -5 5 -10 11 -10 5 0 7 5 4 10 -3 6 -8 10 -11 10 -2 0
-4 -4 -4 -10z"/>
<path d="M530 914 c0 -14 4 -23 9 -20 5 3 7 15 4 26 -7 28 -13 25 -13 -6z"/>
<path d="M1141 931 c-10 -6 -10 -10 -1 -16 13 -8 24 -1 19 14 -3 6 -10 7 -18
2z"/>
<path d="M490 916 c0 -9 5 -16 10 -16 6 0 10 4 10 9 0 6 -4 13 -10 16 -5 3
-10 -1 -10 -9z"/>
<path d="M1111 894 c0 -11 3 -14 6 -6 3 7 2 16 -1 19 -3 4 -6 -2 -5 -13z"/>
<path d="M403 886 c-13 -6 -23 -17 -23 -25 0 -11 3 -12 11 -4 6 6 18 9 25 6 9
-3 14 2 14 16 0 12 -1 20 -2 20 -2 -1 -13 -6 -25 -13z"/>
<path d="M457 842 c-10 -2 -17 -9 -15 -15 3 -18 -12 -60 -29 -79 -19 -21 -13
-62 10 -66 10 -2 17 3 17 11 0 8 8 18 17 22 16 6 15 8 -6 24 -16 13 -20 20
-12 25 7 4 18 3 25 -3 10 -8 17 -7 27 5 11 14 10 18 -10 34 -16 12 -20 19 -11
22 19 6 8 24 -13 20z"/>
<path d="M1743 713 c-25 -3 -33 -9 -33 -24 0 -13 7 -19 23 -20 20 -1 20 -2 2
-6 -27 -7 -43 -23 -22 -23 9 0 20 -6 24 -14 5 -9 18 -12 36 -9 25 5 27 9 27
54 0 33 -4 48 -12 47 -7 0 -28 -3 -45 -5z"/>
<path d="M530 653 c0 -5 9 -23 20 -41 20 -33 44 -36 33 -4 -12 34 -53 68 -53
45z"/>
<path d="M1222 621 c-19 -11 -11 -45 11 -49 13 -3 17 3 17 27 0 32 -6 37 -28
22z"/>
<path d="M1102 612 c-20 -6 -52 -51 -52 -73 0 -5 15 -9 33 -9 33 1 57 23 71
68 8 24 -5 27 -52 14z"/>
<path d="M1330 581 c0 -12 -3 -21 -7 -21 -5 0 -19 -10 -33 -23 -14 -12 -24
-21 -21 -19 2 1 12 -5 22 -14 20 -18 39 -11 39 16 0 10 6 20 14 23 9 4 12 14
9 27 -7 28 -23 36 -23 11z"/>
<path d="M1776 520 c-19 -6 -19 -7 -1 -13 20 -8 29 -4 24 11 -2 5 -13 6 -23 2z"/>
<path d="M330 380 c0 -25 16 -44 25 -30 4 7 0 19 -9 28 -13 14 -16 14 -16 2z"/>
<path d="M805 350 c-3 -5 -1 -10 4 -10 6 0 11 5 11 10 0 6 -2 10 -4 10 -3 0
-8 -4 -11 -10z"/>
<path d="M1428 309 c-10 -5 -18 -19 -18 -29 0 -19 1 -19 25 2 37 32 32 50 -7
27z"/>
<path d="M902 301 c-10 -6 -7 -12 12 -24 33 -22 36 -22 36 8 0 26 -22 33 -48
16z"/>
<path d="M240 290 c0 -5 5 -10 10 -10 7 0 7 -6 0 -19 -15 -28 -12 -51 6 -51 8
0 22 -7 31 -16 11 -10 19 -12 26 -5 18 18 -9 86 -38 99 -32 15 -35 15 -35 2z"/>
<path d="M0 180 c0 -5 7 -10 15 -10 8 0 15 5 15 10 0 6 -7 10 -15 10 -8 0 -15
-4 -15 -10z"/>
<path d="M1520 126 c0 -10 9 -16 21 -16 24 0 21 23 -4 28 -10 2 -17 -3 -17
-12z"/>
<path d="M1635 109 c-4 -6 -5 -11 -4 -12 2 -1 14 -8 26 -14 29 -16 44 4 18 24
-23 16 -32 16 -40 2z"/>
<path d="M1000 87 c0 -13 -5 -28 -12 -35 -7 -7 -8 -12 -2 -12 11 0 34 42 34
60 0 6 -4 10 -10 10 -5 0 -10 -10 -10 -23z"/>
<path d="M442 58 c6 -18 28 -21 28 -4 0 9 -7 16 -16 16 -9 0 -14 -5 -12 -12z"/>
<path d="M10 10 c-12 -8 -9 -10 13 -10 15 0 27 5 27 10 0 13 -20 13 -40 0z"/>
</g>
</svg>
